<?xml version="1.0" encoding="utf-8"?>
<!DOCTYPE svg PUBLIC "-//W3C//DTD SVG 1.1//EN" "http://www.w3.org/Graphics/SVG/1.1/DTD/svg11.dtd">
<svg version="1.1" id="CollectivWorks-Logo-Left-Aligned" xmlns="http://www.w3.org/2000/svg" xmlns:xlink="http://www.w3.org/1999/xlink" x="0px" y="0px"
	 width="100%" height="46.4px" viewBox="0 0 355.6 46.4" style="enable-background:new 0 0 355.6 46.4;" xml:space="preserve">
	<title>CollectivWorks</title>
	<g id="CollectiveWorks-LogoType">
		<path style="fill:#2E2E2F;" d="M93.9,23.2L93.9,23.2c0-4.8,3.6-8.7,8.8-8.7c3.2,0,5.1,1.1,6.6,2.6l-2.4,2.7
			c-1.3-1.2-2.6-1.9-4.3-1.9c-2.8,0-4.9,2.4-4.9,5.2v0c0,2.9,2,5.3,4.9,5.3c1.9,0,3.1-0.8,4.4-2l2.4,2.4c-1.7,1.8-3.6,3-6.9,3
			C97.5,31.9,93.9,28.1,93.9,23.2z"/>
		<path style="fill:#2E2E2F;" d="M113.5,23.2L113.5,23.2c0-4.8,3.8-8.7,9-8.7c5.2,0,8.9,3.9,8.9,8.6v0c0,4.8-3.8,8.7-9,8.7
			S113.5,28,113.5,23.2z M127.5,23.2L127.5,23.2c0-2.9-2.1-5.3-5.1-5.3s-5,2.4-5,5.2v0c0,2.9,2.1,5.3,5.1,5.3
			C125.4,28.5,127.5,26.1,127.5,23.2z"/>
		<path style="fill:#2E2E2F;" d="M136,14.8h3.7v13.4h8.4v3.4H136V14.8z"/>
		<path style="fill:#2E2E2F;" d="M153.3,14.8h3.7v13.4h8.4v3.4h-12.1V14.8z"/>
		<path style="fill:#2E2E2F;" d="M170.6,14.8h12.7v3.3h-9v3.4h7.9v3.3h-7.9v3.5h9.1v3.3h-12.8V14.8z"/>
		<path style="fill:#2E2E2F;" d="M188.3,23.2L188.3,23.2c0-4.8,3.6-8.7,8.8-8.7c3.2,0,5.1,1.1,6.6,2.6l-2.4,2.7
			c-1.3-1.2-2.6-1.9-4.3-1.9c-2.8,0-4.9,2.4-4.9,5.2v0c0,2.9,2,5.3,4.9,5.3c1.9,0,3.1-0.8,4.4-2l2.4,2.4c-1.7,1.8-3.6,3-6.9,3
			C192,31.9,188.3,28.1,188.3,23.2z"/>
		<path style="fill:#2E2E2F;" d="M213.1,18.2h-5.1v-3.4h13.9v3.4h-5.1v13.4h-3.7V18.2z"/>
		<path style="fill:#2E2E2F;" d="M226.3,14.8h3.7v16.8h-3.7V14.8z"/>
		<path style="fill:#2E2E2F;" d="M235.1,14.8h4.1l4.4,11.8l4.4-11.8h4l-6.8,16.9h-3.3L235.1,14.8z"/>
		<path style="fill:#2E2E2F;" d="M256.1,14.8h1.4l5.3,15l4.9-15h1l4.9,15l5.3-15h1.3l-6.1,16.9h-1l-4.9-14.6l-4.9,14.6h-1
			L256.1,14.8z"/>
		<path style="fill:#2E2E2F;" d="M283.7,23.2L283.7,23.2c0-4.6,3.4-8.7,8.5-8.7c5.1,0,8.4,4.1,8.4,8.6v0c0,4.6-3.4,8.7-8.5,8.7
			S283.7,27.8,283.7,23.2z M299.3,23.2L299.3,23.2c0-4.2-3-7.6-7.2-7.6S285,19,285,23.1v0c0,4.2,3,7.6,7.2,7.6
			S299.3,27.4,299.3,23.2z"/>
		<path style="fill:#2E2E2F;" d="M306.3,14.8h7.1c2.1,0,3.7,0.6,4.7,1.7c0.8,0.8,1.3,1.9,1.3,3.1v0c0,2.8-2.1,4.4-4.9,4.8l5.5,7.2
			h-1.6l-5.4-7h-5.5v7h-1.2V14.8z M313.2,23.5c2.8,0,4.9-1.4,4.9-3.8v0c0-2.3-1.8-3.7-4.8-3.7h-5.7v7.6H313.2z"/>
		<path style="fill:#2E2E2F;" d="M325,14.8h1.2v11l10.7-11h1.7l-7.3,7.4l7.7,9.4h-1.6l-6.9-8.5l-4.2,4.2v4.3H325V14.8z"/>
		<path style="fill:#2E2E2F;" d="M343.2,29.1l0.8-0.9c1.8,1.7,3.6,2.5,6,2.5c2.5,0,4.2-1.4,4.2-3.3v0c0-1.8-0.9-2.8-4.8-3.6
			c-4-0.8-5.7-2.2-5.7-4.7v0c0-2.5,2.3-4.4,5.4-4.4c2.4,0,4.1,0.7,5.8,2l-0.8,1c-1.6-1.4-3.2-1.9-5-1.9c-2.5,0-4.1,1.4-4.1,3.2v0
			c0,1.8,0.9,2.9,4.9,3.7c3.9,0.8,5.5,2.2,5.5,4.6v0c0,2.7-2.3,4.6-5.6,4.6C347.3,31.8,345.3,30.9,343.2,29.1z"/>
	</g>
	<g id="cw-logo">
		<path style="fill:#2E2E2F;" d="M23.3,45.8l15-8.7c1.4-0.8,3.7-0.8,5.1,0l15.1,8.7c1.4,0.8,3.7,0.8,5.1,0l15.7-9.3
		c1.4-0.8,2.6-2.8,2.6-4.5V14.3c0-1.6-1.2-3.6-2.6-4.5L63.6,0.6c-1.4-0.8-3.7-0.8-5.1,0L43.6,9.4c-1.4,0.8-3.7,0.8-5.1,0L23.4,0.8
		c-1.4-0.8-3.7-0.8-5.1,0L2.6,10C1.2,10.9,0,12.9,0,14.5v17.7c0,1.6,1.2,3.6,2.6,4.5l15.6,9.1C19.5,46.6,21.9,46.6,23.3,45.8z
		 M44.8,10.2l13-7.6c1.4-0.8,2.6-0.2,2.6,1.5v15.2c0,1.6-1.2,2.3-2.6,1.5l-12.9-7.5C43.4,12.4,43.4,11,44.8,10.2z M24.9,21.8
		L38.3,14c1.4-0.8,3.7-0.8,5.1,0l13.5,7.8c1.4,0.8,1.4,2.2,0,3l-13.5,7.8c-1.4,0.8-3.7,0.8-5.1,0l-13.5-7.8
		C23.4,23.9,23.4,22.6,24.9,21.8z M21.5,42.4V27.3c0-1.6,1.2-2.3,2.6-1.5L37,33.3c1.4,0.8,1.4,2.2,0,3l-13,7.6
		C22.7,44.7,21.5,44.1,21.5,42.4z"/>
	</g>
</svg>
