<?xml version="1.0" encoding="utf-8"?>
<!-- Generator: Adobe Illustrator 16.0.0, SVG Export Plug-In . SVG Version: 6.00 Build 0)  -->
<!DOCTYPE svg PUBLIC "-//W3C//DTD SVG 1.1//EN" "http://www.w3.org/Graphics/SVG/1.1/DTD/svg11.dtd">
<svg version="1.1" id="Layer_1" xmlns="http://www.w3.org/2000/svg" xmlns:xlink="http://www.w3.org/1999/xlink" x="0px" y="0px"
	 width="60px" height="60px" viewBox="0 0 60 60" style="enable-background:new 0 0 60 60;" xml:space="preserve">
<g>
	<path style="fill:#2F2F2F;" d="M30,0C13.5,0,0,13.5,0,30c0,16.5,13.5,30,30,30s30-13.5,30-30C60,13.5,46.5,0,30,0z M30,58.4
		C14.3,58.4,1.6,45.7,1.6,30S14.3,1.6,30,1.6c15.7,0,28.4,12.7,28.4,28.4S45.7,58.4,30,58.4z"/>
	<polygon style="fill:#2F2F2F;" points="43.4,15.7 34.1,15.7 23.7,29.7 23.7,15.7 15.7,15.7 15.7,44.7 23.7,44.7 23.7,30.4 
		33.5,44.7 42.7,44.7 30.2,30.1 	"/>
	<path style="fill:#2F2F2F;" d="M42.6,20.3c1.8,2.9,2.8,6.2,2.8,9.6c0,3.8-1.2,7.4-3.4,10.5l2.2,2.8c3-3.8,4.7-8.5,4.7-13.3
		c0-4.5-1.4-8.7-4-12.3L42.6,20.3z"/>
	<path style="fill:#2F2F2F;" d="M40.7,38.6c1.7-2.6,2.6-5.6,2.6-8.7c0-2.8-0.8-5.5-2.2-7.9l-2.4,2.8c0.7,1.6,1.1,3.3,1.1,5
		c0,2-0.5,4-1.5,5.8L40.7,38.6z"/>
	<path style="fill:#2F2F2F;" d="M34.2,30.3l2.7,3.5c0.5-1.2,0.8-2.5,0.8-3.9c0-1.1-0.2-2.2-0.5-3.2l-3,3.5
		C34.2,30.2,34.2,30.3,34.2,30.3z"/>
</g>
</svg>
