<?xml version="1.0" encoding="utf-8"?>
<!DOCTYPE svg PUBLIC "-//W3C//DTD SVG 1.1//EN" "http://www.w3.org/Graphics/SVG/1.1/DTD/svg11.dtd">
<svg version="1.1" id="cw-logo" xmlns="http://www.w3.org/2000/svg" xmlns:xlink="http://www.w3.org/1999/xlink" x="0px" y="0px"
viewBox="0 0 154.7 87.7" style="enable-background:new 0 0 154.7 87.7;" xml:space="preserve">
<path style="fill:#2E2E2F;" d="M44,86.6l28.3-16.5c2.7-1.6,7-1.6,9.7,0l28.5,16.4c2.7,1.5,7,1.5,9.7,0l29.7-17.5
	c2.7-1.6,4.8-5.4,4.8-8.5V27c0-3.1-2.2-6.9-4.8-8.4L120.2,1.2c-2.7-1.6-7-1.6-9.7,0L82.4,17.8c-2.7,1.6-7,1.6-9.7,0.1L44.2,1.4
	c-2.7-1.5-7-1.5-9.7,0L4.8,19C2.2,20.5,0,24.4,0,27.4v33.5c0,3.1,2.2,6.9,4.8,8.4l29.5,17.2C37,88.1,41.3,88.1,44,86.6z M84.6,19.3
	l24.5-14.4c2.7-1.6,4.8-0.3,4.8,2.8v28.7c0,3.1-2.2,4.3-4.9,2.8L84.7,25C82,23.4,82,20.9,84.6,19.3z M47,41.1l25.5-14.7
	c2.7-1.5,7-1.5,9.7,0l25.4,14.7c2.7,1.5,2.7,4.1,0,5.6L82.2,61.5c-2.7,1.5-7,1.5-9.7,0L47,46.8C44.3,45.2,44.3,42.7,47,41.1z
	 M40.7,80.3V51.6c0-3.1,2.2-4.3,4.9-2.8L70,62.9c2.7,1.5,2.7,4.1,0,5.7L45.5,83C42.9,84.6,40.7,83.3,40.7,80.3z"/>
</svg>
