<?xml version="1.0" encoding="utf-8"?>
<!-- Generator: Adobe Illustrator 16.0.0, SVG Export Plug-In . SVG Version: 6.00 Build 0)  -->
<!DOCTYPE svg PUBLIC "-//W3C//DTD SVG 1.1//EN" "http://www.w3.org/Graphics/SVG/1.1/DTD/svg11.dtd">
<svg version="1.1" id="Layer_1" xmlns="http://www.w3.org/2000/svg" xmlns:xlink="http://www.w3.org/1999/xlink" x="0px" y="0px"
	 width="60px" height="54.3px" viewBox="0 0 60 54.3" style="enable-background:new 0 0 60 54.3;" xml:space="preserve">
<g>
	<path style="fill:#2F2F2F;" d="M59.4,53.4c-2.2-2-9.7-7.5-11.6-8.6c4.9,1.6,9.2,3.3,11.4,3.9c0.3,0.1,0.6,0.1,0.6-0.1
		c0.1-0.2-0.3-0.5-0.5-0.7c-2.1-2.2-8.1-6.8-10.6-8.2c3.1-2.3,14.8-14.2,10-31.4c-0.1-0.4-0.4-1.6-0.8-1.5C57.7,7,57.8,8.4,57.7,9
		c-0.4,4.9-1.6,9.5-1.6,9.5c1-7.5-1-13.1-3-16.7C52.9,1.4,52-0.1,51.6,0s-0.1,1.9,0,3c0.7,7.2-1.5,12.8-3.7,16.4
		c-0.4-0.6-1.7-2-1.7-2c-0.6,1.2-0.7,3.2-0.7,3.2L44,18.8c-1.8,2.8-2.3,6-2.5,7.5c-3.9,3-12.1,7.5-22.9,4.3
		C6.9,27.1,2.7,17.8,1.4,14.3c-0.2-0.4-0.5-1.8-0.7-1.8c-0.2,0-0.5,1.4-0.5,1.7c-1,9.4,3.9,18.5,7.3,22c1.3,1.3,2.2,2.3,3.2,3.2
		c-2.8,1.8-8.2,6.8-10.2,8.6c-0.2,0.2-0.5,0.5-0.5,0.7c0.1,0.2,0.3,0.2,0.6,0.1c2.2-0.7,5.9-2.4,10.9-3.9c-1.9,1.2-8.7,6.6-11,8.6
		c-0.2,0.2-0.5,0.5-0.5,0.7c0.1,0.2,0.3,0.2,0.6,0.1c4.5-1.4,15.9-7.1,29.3-7.1c13.4,0,24.8,5.7,29.4,7.1c0.3,0.1,0.6,0.1,0.6-0.1
		C60,53.9,59.7,53.6,59.4,53.4z M48.2,22.8c0.4-0.7,2.7-1.3,2.7-1.3s0.1,2.1-0.3,2.7c-0.4,0.7-1.3,0.9-1.9,0.5
		C48,24.3,47.8,23.5,48.2,22.8z"/>
</g>
</svg>
